<svg xmlns="http://www.w3.org/2000/svg" viewBox="0 0 128 128" role="img" aria-label="Creamy Inn icon">
  <defs>
    <linearGradient id="bg" x1="0%" x2="100%" y1="0%" y2="100%">
      <stop offset="0%" stop-color="#E63946" />
      <stop offset="52%" stop-color="#FF6B35" />
      <stop offset="100%" stop-color="#FFD166" />
    </linearGradient>
    <linearGradient id="cone" x1="0%" x2="100%" y1="0%" y2="100%">
      <stop offset="0%" stop-color="#FFD166" />
      <stop offset="100%" stop-color="#FF6B35" />
    </linearGradient>
  </defs>
  <rect width="128" height="128" rx="34" fill="url(#bg)" />
  <circle cx="64" cy="44" r="26" fill="#fff7f1" opacity="0.92" />
  <path d="M64 34c8 0 15 6 15 14s-7 14-15 14-15-6-15-14 7-14 15-14z" fill="#fffdfb" />
  <path d="M54 62h20l-8 28a4 4 0 0 1-4 3 4 4 0 0 1-4-3z" fill="url(#cone)" />
  <path d="M64 32c6 0 11 4 12 10-2-2-5-3-8-3-4 0-7 1-10 4 1-6 6-11 14-11z" fill="#ffdca8" opacity="0.75" />
</svg>
