<svg xmlns="http://www.w3.org/2000/svg" viewBox="0 0 1200 630" role="img" aria-label="Creamy Inn social card">
  <defs>
    <linearGradient id="bg" x1="0%" x2="100%" y1="0%" y2="100%">
      <stop offset="0%" stop-color="#fff2e5" />
      <stop offset="52%" stop-color="#FFF8F0" />
      <stop offset="100%" stop-color="#ffece3" />
    </linearGradient>
    <linearGradient id="blobOne" x1="0%" x2="100%" y1="0%" y2="100%">
      <stop offset="0%" stop-color="#E63946" />
      <stop offset="100%" stop-color="#FF6B35" />
    </linearGradient>
    <linearGradient id="blobTwo" x1="0%" x2="100%" y1="0%" y2="100%">
      <stop offset="0%" stop-color="#06D6A0" />
      <stop offset="100%" stop-color="#04966F" />
    </linearGradient>
  </defs>
  <rect width="1200" height="630" rx="40" fill="url(#bg)" />
  <circle cx="1015" cy="115" r="120" fill="url(#blobOne)" opacity="0.85" />
  <circle cx="1045" cy="500" r="144" fill="url(#blobTwo)" opacity="0.22" />
  <circle cx="160" cy="150" r="86" fill="#FFD166" opacity="0.72" />
  <rect x="90" y="92" width="1020" height="446" rx="38" fill="#fffdf9" opacity="0.92" />
  <rect x="760" y="150" width="250" height="250" rx="40" fill="url(#blobOne)" />
  <circle cx="885" cy="255" r="76" fill="#fff7f1" opacity="0.92" />
  <path d="M844 329h82l-31 106a14 14 0 0 1-13 10 14 14 0 0 1-13-10z" fill="#FFD166" />
  <text x="160" y="210" fill="#E63946" font-size="28" font-family="Arial, sans-serif" font-weight="700" letter-spacing="6">
    CREAMYINN.APP
  </text>
  <text x="160" y="304" fill="#1A0A0F" font-size="74" font-family="Georgia, serif" font-weight="700">
    Creamy Inn
  </text>
  <text x="160" y="368" fill="#1A0A0F" font-size="38" font-family="Georgia, serif" font-style="italic">
    Where Every Scoop Tells a Story 🍦
  </text>
  <text x="160" y="430" fill="#1A0A0F" font-size="30" font-family="Arial, sans-serif">
    Nellore's Favourite Ice Cream Destination Since 2018
  </text>
  <text x="160" y="498" fill="#6B3A2A" font-size="28" font-family="Arial, sans-serif">
    Ice Cream • Snacks • Dine-In • Takeaway • Delivery
  </text>
</svg>
